<mxfile host="app.diagrams.net" modified="2024-05-15T04:16:33.976Z" agent="Mozilla/5.0 (X11; Ubuntu; Linux x86_64; rv:125.0) Gecko/20100101 Firefox/125.0" etag="kFnkx_RW-z-U493e-2K9" version="24.4.0" type="device">
  <diagram name="Page-1" id="rWS8M4wVrsPVCuwFacmI">
    <mxGraphModel dx="597" dy="642" grid="1" gridSize="10" guides="1" tooltips="1" connect="1" arrows="1" fold="1" page="1" pageScale="1" pageWidth="827" pageHeight="1169" math="0" shadow="0">
      <root>
        <mxCell id="0" />
        <mxCell id="1" parent="0" />
        <mxCell id="Eizu3-5CYj6l6nNDK07D-3" value="" style="edgeStyle=orthogonalEdgeStyle;rounded=0;orthogonalLoop=1;jettySize=auto;html=1;" edge="1" parent="1" source="Eizu3-5CYj6l6nNDK07D-1" target="Eizu3-5CYj6l6nNDK07D-2">
          <mxGeometry relative="1" as="geometry" />
        </mxCell>
        <mxCell id="Eizu3-5CYj6l6nNDK07D-1" value="&lt;div&gt;Start&lt;/div&gt;" style="rounded=1;whiteSpace=wrap;html=1;" vertex="1" parent="1">
          <mxGeometry x="240" y="20" width="100" height="40" as="geometry" />
        </mxCell>
        <mxCell id="Eizu3-5CYj6l6nNDK07D-5" value="" style="edgeStyle=orthogonalEdgeStyle;rounded=0;orthogonalLoop=1;jettySize=auto;html=1;" edge="1" parent="1" source="Eizu3-5CYj6l6nNDK07D-2" target="Eizu3-5CYj6l6nNDK07D-4">
          <mxGeometry relative="1" as="geometry" />
        </mxCell>
        <mxCell id="Eizu3-5CYj6l6nNDK07D-2" value="Generate a random word" style="rounded=1;whiteSpace=wrap;html=1;" vertex="1" parent="1">
          <mxGeometry x="240" y="100" width="100" height="40" as="geometry" />
        </mxCell>
        <mxCell id="Eizu3-5CYj6l6nNDK07D-7" value="" style="edgeStyle=orthogonalEdgeStyle;rounded=0;orthogonalLoop=1;jettySize=auto;html=1;" edge="1" parent="1" source="Eizu3-5CYj6l6nNDK07D-4" target="Eizu3-5CYj6l6nNDK07D-6">
          <mxGeometry relative="1" as="geometry" />
        </mxCell>
        <mxCell id="Eizu3-5CYj6l6nNDK07D-4" value="Generate the same number of blanks" style="rounded=1;whiteSpace=wrap;html=1;" vertex="1" parent="1">
          <mxGeometry x="240" y="170" width="100" height="40" as="geometry" />
        </mxCell>
        <mxCell id="Eizu3-5CYj6l6nNDK07D-9" value="" style="edgeStyle=orthogonalEdgeStyle;rounded=0;orthogonalLoop=1;jettySize=auto;html=1;" edge="1" parent="1" source="Eizu3-5CYj6l6nNDK07D-6" target="Eizu3-5CYj6l6nNDK07D-8">
          <mxGeometry relative="1" as="geometry" />
        </mxCell>
        <mxCell id="Eizu3-5CYj6l6nNDK07D-6" value="Ask the user to guess a letter" style="rounded=1;whiteSpace=wrap;html=1;" vertex="1" parent="1">
          <mxGeometry x="240" y="240" width="100" height="40" as="geometry" />
        </mxCell>
        <mxCell id="Eizu3-5CYj6l6nNDK07D-11" style="edgeStyle=orthogonalEdgeStyle;rounded=0;orthogonalLoop=1;jettySize=auto;html=1;entryX=0.5;entryY=0;entryDx=0;entryDy=0;" edge="1" parent="1" source="Eizu3-5CYj6l6nNDK07D-8" target="Eizu3-5CYj6l6nNDK07D-10">
          <mxGeometry relative="1" as="geometry" />
        </mxCell>
        <mxCell id="Eizu3-5CYj6l6nNDK07D-12" value="Yes" style="edgeLabel;html=1;align=center;verticalAlign=middle;resizable=0;points=[];" vertex="1" connectable="0" parent="Eizu3-5CYj6l6nNDK07D-11">
          <mxGeometry x="-0.4444" y="4" relative="1" as="geometry">
            <mxPoint as="offset" />
          </mxGeometry>
        </mxCell>
        <mxCell id="Eizu3-5CYj6l6nNDK07D-8" value="Is the guess in the word?" style="rhombus;whiteSpace=wrap;html=1;" vertex="1" parent="1">
          <mxGeometry x="250" y="320" width="80" height="80" as="geometry" />
        </mxCell>
        <mxCell id="Eizu3-5CYj6l6nNDK07D-17" value="" style="edgeStyle=orthogonalEdgeStyle;rounded=0;orthogonalLoop=1;jettySize=auto;html=1;" edge="1" parent="1" source="Eizu3-5CYj6l6nNDK07D-10" target="Eizu3-5CYj6l6nNDK07D-16">
          <mxGeometry relative="1" as="geometry" />
        </mxCell>
        <mxCell id="Eizu3-5CYj6l6nNDK07D-10" value="Replace the blank with the letter" style="rounded=1;whiteSpace=wrap;html=1;" vertex="1" parent="1">
          <mxGeometry x="100" y="440" width="100" height="40" as="geometry" />
        </mxCell>
        <mxCell id="Eizu3-5CYj6l6nNDK07D-21" value="" style="edgeStyle=orthogonalEdgeStyle;rounded=0;orthogonalLoop=1;jettySize=auto;html=1;" edge="1" parent="1" source="Eizu3-5CYj6l6nNDK07D-13" target="Eizu3-5CYj6l6nNDK07D-20">
          <mxGeometry relative="1" as="geometry" />
        </mxCell>
        <mxCell id="Eizu3-5CYj6l6nNDK07D-13" value="Lose a life" style="rounded=1;whiteSpace=wrap;html=1;" vertex="1" parent="1">
          <mxGeometry x="364" y="440" width="100" height="40" as="geometry" />
        </mxCell>
        <mxCell id="Eizu3-5CYj6l6nNDK07D-14" style="edgeStyle=orthogonalEdgeStyle;rounded=0;orthogonalLoop=1;jettySize=auto;html=1;entryX=0.59;entryY=-0.05;entryDx=0;entryDy=0;entryPerimeter=0;" edge="1" parent="1" source="Eizu3-5CYj6l6nNDK07D-8" target="Eizu3-5CYj6l6nNDK07D-13">
          <mxGeometry relative="1" as="geometry" />
        </mxCell>
        <mxCell id="Eizu3-5CYj6l6nNDK07D-15" value="No" style="edgeLabel;html=1;align=center;verticalAlign=middle;resizable=0;points=[];" vertex="1" connectable="0" parent="Eizu3-5CYj6l6nNDK07D-14">
          <mxGeometry x="-0.4503" y="-2" relative="1" as="geometry">
            <mxPoint as="offset" />
          </mxGeometry>
        </mxCell>
        <mxCell id="Eizu3-5CYj6l6nNDK07D-18" style="edgeStyle=orthogonalEdgeStyle;rounded=0;orthogonalLoop=1;jettySize=auto;html=1;entryX=0;entryY=0.5;entryDx=0;entryDy=0;" edge="1" parent="1" source="Eizu3-5CYj6l6nNDK07D-16" target="Eizu3-5CYj6l6nNDK07D-6">
          <mxGeometry relative="1" as="geometry">
            <Array as="points">
              <mxPoint x="60" y="545" />
              <mxPoint x="60" y="260" />
            </Array>
          </mxGeometry>
        </mxCell>
        <mxCell id="Eizu3-5CYj6l6nNDK07D-19" value="No" style="edgeLabel;html=1;align=center;verticalAlign=middle;resizable=0;points=[];" vertex="1" connectable="0" parent="Eizu3-5CYj6l6nNDK07D-18">
          <mxGeometry x="-0.0602" relative="1" as="geometry">
            <mxPoint as="offset" />
          </mxGeometry>
        </mxCell>
        <mxCell id="Eizu3-5CYj6l6nNDK07D-27" style="edgeStyle=orthogonalEdgeStyle;rounded=0;orthogonalLoop=1;jettySize=auto;html=1;entryX=0;entryY=0.5;entryDx=0;entryDy=0;" edge="1" parent="1" source="Eizu3-5CYj6l6nNDK07D-16" target="Eizu3-5CYj6l6nNDK07D-25">
          <mxGeometry relative="1" as="geometry">
            <Array as="points">
              <mxPoint x="150" y="650" />
            </Array>
          </mxGeometry>
        </mxCell>
        <mxCell id="Eizu3-5CYj6l6nNDK07D-28" value="Yes" style="edgeLabel;html=1;align=center;verticalAlign=middle;resizable=0;points=[];" vertex="1" connectable="0" parent="Eizu3-5CYj6l6nNDK07D-27">
          <mxGeometry x="-0.4065" y="-1" relative="1" as="geometry">
            <mxPoint as="offset" />
          </mxGeometry>
        </mxCell>
        <mxCell id="Eizu3-5CYj6l6nNDK07D-16" value="Are all the blanks filled?" style="rhombus;whiteSpace=wrap;html=1;" vertex="1" parent="1">
          <mxGeometry x="110" y="505" width="80" height="80" as="geometry" />
        </mxCell>
        <mxCell id="Eizu3-5CYj6l6nNDK07D-23" style="edgeStyle=orthogonalEdgeStyle;rounded=0;orthogonalLoop=1;jettySize=auto;html=1;entryX=1;entryY=0.5;entryDx=0;entryDy=0;" edge="1" parent="1" source="Eizu3-5CYj6l6nNDK07D-20" target="Eizu3-5CYj6l6nNDK07D-6">
          <mxGeometry relative="1" as="geometry">
            <Array as="points">
              <mxPoint x="490" y="545" />
              <mxPoint x="490" y="260" />
            </Array>
          </mxGeometry>
        </mxCell>
        <mxCell id="Eizu3-5CYj6l6nNDK07D-24" value="Yes" style="edgeLabel;html=1;align=center;verticalAlign=middle;resizable=0;points=[];" vertex="1" connectable="0" parent="Eizu3-5CYj6l6nNDK07D-23">
          <mxGeometry x="-0.1762" y="-1" relative="1" as="geometry">
            <mxPoint as="offset" />
          </mxGeometry>
        </mxCell>
        <mxCell id="Eizu3-5CYj6l6nNDK07D-29" style="edgeStyle=orthogonalEdgeStyle;rounded=0;orthogonalLoop=1;jettySize=auto;html=1;entryX=1;entryY=0.5;entryDx=0;entryDy=0;" edge="1" parent="1" source="Eizu3-5CYj6l6nNDK07D-20" target="Eizu3-5CYj6l6nNDK07D-25">
          <mxGeometry relative="1" as="geometry">
            <Array as="points">
              <mxPoint x="410" y="650" />
            </Array>
          </mxGeometry>
        </mxCell>
        <mxCell id="Eizu3-5CYj6l6nNDK07D-30" value="No" style="edgeLabel;html=1;align=center;verticalAlign=middle;resizable=0;points=[];" vertex="1" connectable="0" parent="Eizu3-5CYj6l6nNDK07D-29">
          <mxGeometry x="-0.482" y="1" relative="1" as="geometry">
            <mxPoint as="offset" />
          </mxGeometry>
        </mxCell>
        <mxCell id="Eizu3-5CYj6l6nNDK07D-20" value="Any lives left?" style="rhombus;whiteSpace=wrap;html=1;" vertex="1" parent="1">
          <mxGeometry x="374" y="505" width="80" height="80" as="geometry" />
        </mxCell>
        <mxCell id="Eizu3-5CYj6l6nNDK07D-25" value="Game Over" style="rounded=1;whiteSpace=wrap;html=1;" vertex="1" parent="1">
          <mxGeometry x="240" y="630" width="100" height="40" as="geometry" />
        </mxCell>
      </root>
    </mxGraphModel>
  </diagram>
</mxfile>
